<svg id="svg" xmlns="http://www.w3.org/2000/svg" xmlns:xlink="http://www.w3.org/1999/xlink" width="400" height="75.63759334930252" viewBox="0, 0, 400,75.63759334930252" version="1.1"><g id="svgg"><path id="path0" d="M25.913 5.848 L 15.783 11.695 15.782 16.754 C 15.782 19.536,15.803 21.812,15.829 21.812 C 15.856 21.812,20.422 19.188,25.976 15.981 L 36.074 10.151 39.271 12.017 C 44.220 14.904,56.196 21.812,56.254 21.812 C 56.286 21.812,56.300 19.825,56.292 16.792 L 56.277 11.773 46.217 5.887 C 40.683 2.649,36.131 0.001,36.100 0.001 C 36.069 0.001,31.485 2.632,25.913 5.848 M66.055 12.044 C 65.637 12.428,65.186 12.850,65.053 12.983 L 64.811 13.224 67.406 14.742 L 70.001 16.260 70.001 19.463 C 70.001 22.486,70.007 22.663,70.100 22.635 C 70.154 22.619,70.681 22.476,71.270 22.319 C 71.859 22.161,72.423 22.006,72.524 21.974 L 72.707 21.916 72.707 18.595 L 72.707 15.275 69.761 13.310 L 66.814 11.345 66.055 12.044 M9.906 15.092 L 5.467 17.654 5.469 27.356 L 5.471 37.058 12.947 41.426 C 17.058 43.828,21.619 46.494,23.082 47.350 L 25.741 48.905 30.075 46.403 C 32.459 45.026,34.427 43.882,34.448 43.861 C 34.483 43.826,25.307 38.430,17.027 33.614 L 14.400 32.086 14.372 22.308 L 14.344 12.530 9.906 15.092 M57.712 22.390 L 57.710 32.098 42.468 40.891 C 34.084 45.726,27.233 49.708,27.242 49.738 C 27.252 49.768,29.203 50.930,31.579 52.321 L 35.899 54.849 46.116 48.949 C 51.736 45.704,58.648 41.714,61.476 40.082 L 66.619 37.114 66.619 27.469 L 66.620 17.823 62.225 15.252 C 59.808 13.838,57.805 12.681,57.773 12.681 C 57.733 12.681,57.714 15.751,57.712 22.390 M248.330 27.029 L 248.330 33.260 247.863 32.895 C 244.935 30.608,240.734 30.256,237.296 32.010 C 228.688 36.398,228.765 49.479,237.424 53.718 C 240.645 55.295,244.821 55.055,247.785 53.123 C 248.048 52.951,248.278 52.811,248.297 52.811 C 248.315 52.811,248.330 53.166,248.330 53.600 L 248.330 54.389 250.782 54.389 L 253.234 54.389 253.234 37.593 L 253.234 20.798 250.782 20.798 L 248.330 20.798 248.330 27.029 M88.854 20.945 C 86.047 21.452,84.190 23.436,83.634 26.524 C 83.531 27.096,83.509 27.479,83.486 29.125 L 83.459 31.055 83.102 31.055 C 81.847 31.055,80.927 31.770,80.711 32.913 C 80.679 33.078,80.654 33.780,80.654 34.473 L 80.654 35.733 82.063 35.733 L 83.472 35.733 83.472 45.118 L 83.472 54.502 85.867 54.502 L 88.263 54.502 88.263 45.118 L 88.263 35.733 88.756 35.732 C 90.917 35.728,92.149 34.364,92.151 31.971 L 92.152 31.055 90.204 31.055 L 88.256 31.055 88.274 28.984 C 88.291 26.985,88.296 26.902,88.420 26.596 C 88.655 26.012,89.073 25.702,89.628 25.700 C 91.436 25.694,92.658 24.260,92.883 21.879 C 92.977 20.895,93.021 20.992,92.444 20.918 C 91.730 20.826,89.416 20.844,88.854 20.945 M352.220 23.590 C 350.077 24.167,349.264 26.876,350.738 28.529 C 352.178 30.145,354.834 29.795,355.756 27.869 C 356.877 25.529,354.719 22.917,352.220 23.590 M148.445 25.336 C 146.661 25.691,146.146 26.654,146.105 29.709 L 146.081 31.547 145.668 31.582 C 144.616 31.671,143.677 32.391,143.327 33.379 C 143.215 33.693,143.198 33.875,143.173 35.015 L 143.146 36.297 144.618 36.297 L 146.090 36.297 146.090 45.461 L 146.090 54.624 146.527 54.584 C 148.626 54.392,150.347 52.931,150.825 50.936 C 150.933 50.487,150.936 50.244,150.937 43.385 L 150.937 36.297 151.458 36.296 C 152.545 36.294,153.335 35.990,154.010 35.314 C 154.788 34.537,154.990 33.991,155.036 32.535 L 155.067 31.563 153.002 31.563 L 150.937 31.563 150.937 28.406 L 150.937 25.250 149.880 25.255 C 149.247 25.259,148.672 25.291,148.445 25.336 M390.703 31.002 C 387.259 31.332,384.906 33.300,384.237 36.410 C 383.427 40.179,386.206 43.543,391.179 44.814 C 392.157 45.064,393.535 45.638,394.138 46.048 C 396.044 47.343,395.396 49.319,392.842 49.999 C 391.426 50.376,390.517 50.115,389.122 48.928 C 387.261 47.345,385.263 47.472,383.543 49.283 L 383.347 49.490 383.501 49.784 C 384.213 51.136,386.588 53.280,388.221 54.044 C 390.928 55.312,394.816 54.928,397.182 53.161 C 400.668 50.557,400.973 45.917,397.852 42.980 C 396.633 41.833,394.373 40.711,392.175 40.162 C 390.546 39.754,389.461 39.215,389.063 38.615 C 388.511 37.781,388.938 36.532,389.958 35.996 C 391.158 35.366,392.215 35.484,394.354 36.488 C 396.189 37.349,397.673 37.174,399.084 35.929 C 399.429 35.625,399.434 35.594,399.214 35.129 C 397.942 32.440,394.272 30.660,390.703 31.002 M103.283 31.036 C 93.498 31.810,89.224 44.449,96.320 51.628 C 100.007 55.358,106.348 55.949,110.161 52.918 L 110.574 52.590 110.697 52.844 C 111.212 53.908,112.684 54.502,114.808 54.502 L 115.319 54.502 115.303 44.596 L 115.287 34.691 115.165 34.259 C 114.640 32.414,113.106 31.184,111.188 31.074 L 110.582 31.038 110.582 32.153 C 110.582 33.231,110.579 33.265,110.477 33.190 C 109.691 32.613,109.377 32.413,108.776 32.106 C 107.155 31.278,105.152 30.888,103.283 31.036 M129.660 31.061 C 128.236 31.210,126.722 31.750,125.554 32.527 C 125.372 32.647,125.213 32.746,125.201 32.746 C 125.189 32.746,125.180 32.366,125.180 31.901 L 125.180 31.055 122.784 31.055 L 120.389 31.055 120.389 42.779 L 120.389 54.502 122.784 54.502 L 125.180 54.502 125.180 47.397 C 125.180 39.085,125.159 39.368,125.837 38.280 C 128.282 34.357,133.840 35.104,135.198 39.538 L 135.353 40.045 135.368 47.245 L 135.384 54.446 137.780 54.446 L 140.176 54.446 140.155 46.992 C 140.133 38.939,140.152 39.455,139.834 38.213 C 138.671 33.666,134.280 30.579,129.660 31.061 M167.226 31.057 C 157.224 32.008,152.855 44.493,160.076 51.489 C 167.142 58.336,179.112 54.084,180.185 44.345 C 181.021 36.755,174.765 30.340,167.226 31.057 M193.857 31.032 C 192.221 31.193,190.750 31.687,189.601 32.461 L 189.179 32.746 189.163 31.901 L 189.147 31.055 186.753 31.055 L 184.360 31.055 184.360 42.779 L 184.360 54.502 186.754 54.502 L 189.148 54.502 189.164 47.161 C 189.180 40.182,189.186 39.802,189.286 39.453 C 190.145 36.471,193.665 34.885,196.472 36.215 C 197.833 36.860,198.758 38.040,199.200 39.696 L 199.324 40.158 199.324 47.330 L 199.324 54.503 201.719 54.488 L 204.114 54.474 204.125 47.316 C 204.132 42.154,204.154 40.064,204.201 39.820 C 205.070 35.339,211.312 34.244,213.550 38.181 C 214.349 39.585,214.343 39.520,214.344 47.640 L 214.344 54.446 216.713 54.446 L 219.082 54.446 219.066 46.964 L 219.050 39.481 218.919 38.861 C 217.859 33.847,213.667 30.609,208.802 31.047 C 206.576 31.248,205.166 31.897,202.739 33.838 L 201.928 34.487 201.396 33.928 C 199.449 31.880,196.550 30.766,193.857 31.032 M268.339 31.037 C 258.256 31.758,253.639 44.230,260.809 51.377 C 267.819 58.363,279.724 54.262,281.023 44.413 C 281.996 37.037,275.800 30.503,268.339 31.037 M294.716 31.032 C 292.858 31.252,291.552 31.696,290.388 32.501 C 290.192 32.636,290.021 32.746,290.007 32.746 C 289.993 32.746,289.982 32.366,289.982 31.901 L 289.982 31.055 287.586 31.055 L 285.191 31.055 285.191 42.779 L 285.191 54.502 287.585 54.502 L 289.979 54.502 289.995 47.189 L 290.011 39.876 290.133 39.445 C 291.305 35.325,297.001 34.414,299.307 37.978 C 300.247 39.431,300.251 39.473,300.229 47.810 L 300.211 54.503 302.579 54.488 L 304.946 54.474 304.958 47.300 C 304.970 40.294,304.973 40.116,305.085 39.642 C 306.166 35.092,312.451 34.320,314.548 38.480 C 315.185 39.743,315.175 39.600,315.175 47.583 L 315.175 54.446 317.544 54.446 L 319.913 54.446 319.897 46.935 L 319.881 39.425 319.751 38.812 C 318.753 34.107,315.098 31.055,310.441 31.038 C 307.810 31.028,306.083 31.759,303.296 34.064 L 302.759 34.509 302.560 34.261 C 300.847 32.134,297.398 30.714,294.716 31.032 M333.803 31.062 C 324.228 31.957,320.156 44.663,327.202 51.656 C 330.901 55.326,336.978 55.940,340.835 53.032 L 341.412 52.597 341.572 52.909 C 342.093 53.926,343.542 54.500,345.597 54.501 L 346.118 54.502 346.118 44.693 C 346.118 33.766,346.141 34.430,345.729 33.563 C 345.011 32.056,343.676 31.167,341.990 31.072 L 341.384 31.038 341.384 32.150 L 341.384 33.261 341.144 33.066 C 339.287 31.558,336.535 30.806,333.803 31.062 M369.255 31.057 C 367.794 31.222,366.122 31.839,365.042 32.611 L 364.774 32.802 364.774 31.929 L 364.774 31.055 362.407 31.055 L 360.039 31.055 360.039 42.779 L 360.039 54.502 362.405 54.502 L 364.771 54.502 364.787 47.217 L 364.803 39.932 364.929 39.487 C 366.272 34.744,373.014 34.458,374.649 39.074 C 375.019 40.118,374.995 39.574,375.016 47.358 L 375.035 54.446 377.402 54.446 L 379.769 54.446 379.753 46.964 L 379.738 39.481 379.608 38.868 C 378.545 33.862,374.100 30.508,369.255 31.057 M350.571 42.779 L 350.571 54.502 352.966 54.502 L 355.361 54.502 355.361 42.779 L 355.361 31.055 352.966 31.055 L 350.571 31.055 350.571 42.779 M243.243 35.813 C 247.478 36.721,249.767 42.053,247.696 46.189 C 245.208 51.154,239.008 51.217,236.561 46.301 C 233.967 41.090,238.039 34.698,243.243 35.813 M169.384 35.817 C 174.733 36.624,177.382 42.875,174.186 47.151 C 170.926 51.513,164.407 50.928,161.959 46.055 C 159.425 41.009,163.801 34.976,169.384 35.817 M270.766 35.921 C 276.396 37.374,278.319 43.967,274.288 47.995 C 270.456 51.824,263.983 50.172,262.349 44.949 C 260.768 39.891,265.690 34.611,270.766 35.921 M105.643 36.036 C 109.712 37.098,111.733 42.441,109.628 46.574 C 106.898 51.936,99.285 50.893,97.874 44.964 C 96.582 39.538,100.742 34.757,105.643 36.036 M335.980 35.929 C 342.363 37.047,343.246 47.204,337.172 49.643 C 331.961 51.735,327.042 46.333,328.851 40.503 C 329.843 37.303,332.842 35.379,335.980 35.929 M5.467 48.427 L 5.468 57.912 20.692 66.704 C 29.065 71.540,35.984 75.531,36.068 75.573 C 36.215 75.646,36.358 75.568,40.528 73.130 C 42.897 71.745,44.856 70.592,44.881 70.568 C 44.906 70.545,38.053 66.559,29.651 61.710 L 14.376 52.896 14.374 48.521 L 14.372 44.147 10.051 41.617 C 7.675 40.225,5.671 39.054,5.599 39.015 L 5.467 38.942 5.467 48.427 M62.167 41.566 L 57.743 44.124 57.728 48.510 L 57.714 52.897 56.207 53.767 C 51.689 56.375,37.678 64.603,37.678 64.648 C 37.678 64.704,46.261 69.680,46.360 69.681 C 46.392 69.682,50.963 67.023,56.519 63.773 L 66.620 57.864 66.620 48.433 C 66.620 43.246,66.613 39.004,66.606 39.005 C 66.598 39.007,64.601 40.159,62.167 41.566 M224.743 47.120 C 221.721 47.726,221.593 52.230,224.576 53.007 C 226.146 53.415,227.721 52.491,228.123 50.925 C 228.698 48.685,226.920 46.683,224.743 47.120 M1.282 53.450 L 0.000 53.797 0.000 57.137 L -0.000 60.476 2.880 62.396 C 4.464 63.452,5.790 64.328,5.827 64.342 C 5.878 64.362,6.967 63.409,7.822 62.595 C 7.879 62.540,7.365 62.217,5.300 61.010 L 2.705 59.494 2.705 56.294 C 2.705 53.768,2.691 53.094,2.635 53.098 C 2.596 53.100,1.988 53.259,1.282 53.450 " stroke="none" fill="#fff" fill-rule="evenodd"></path></g></svg>